<svg width="38" height="30" viewBox="0 0 38 30" fill="none" xmlns="http://www.w3.org/2000/svg">
<path d="M30.8878 23.0192C29.0423 23.0192 27.541 24.5225 27.541 26.3709C27.541 28.22 29.0423 29.7243 30.8878 29.7243C32.734 29.7243 34.2349 28.22 34.2349 26.3709C34.2349 24.5225 32.734 23.0192 30.8878 23.0192Z" fill="#00AC4E"/>
<path d="M8.32127 23.0192C6.4749 23.0192 4.97363 24.5225 4.97363 26.3709C4.97363 28.22 6.4749 29.7243 8.32127 29.7243C10.1666 29.7243 11.6679 28.22 11.6679 26.3709C11.668 24.5225 10.1668 23.0192 8.32127 23.0192Z" fill="#00AC4E"/>
<path d="M32.7767 8.93796C32.6 8.40584 32.1021 8.04626 31.541 8.04626H29.959V13.611H34.3246L32.7767 8.93796Z" fill="#00AC4E"/>
<path d="M36.9702 15.6942H29.959V21.0177C30.261 20.9659 30.5716 20.9368 30.8881 20.9368C33.6856 20.9368 35.9954 23.0661 36.2862 25.7902H36.5312C37.2495 25.7902 37.8323 25.2074 37.8323 24.4883V16.9181C37.8323 16.3532 37.4722 15.8748 36.9702 15.6942Z" fill="#00AC4E"/>
<path d="M27.8264 1.89104C27.8264 1.17189 27.2436 0.589111 26.5252 0.589111H1.42311C0.704853 0.589111 0.12207 1.17177 0.12207 1.89104V24.4879C0.12207 25.2071 0.704853 25.7898 1.42311 25.7898H2.92133C3.21222 23.0657 5.52189 20.9365 8.31988 20.9365C11.1169 20.9365 13.4262 23.0657 13.717 25.7898H23.9919H25.4901C25.6654 24.1497 26.572 22.727 27.8766 21.8528L27.8264 1.89104Z" fill="#00AC4E"/>
</svg>
